<?xml version="1.0" encoding="UTF-8" standalone="no"?>
<!DOCTYPE svg PUBLIC "-//W3C//DTD SVG 1.1//EN" "http://www.w3.org/Graphics/SVG/1.1/DTD/svg11.dtd">
<svg version="1.1" xmlns="http://www.w3.org/2000/svg" xmlns:xlink="http://www.w3.org/1999/xlink" preserveAspectRatio="xMidYMid meet" viewBox="0 0 640 640" width="640" height="640"><defs><path d="M419.19 11.68L422.72 11.82L426.26 12.02L429.78 12.28L433.3 12.59L436.81 12.96L440.31 13.38L443.8 13.86L447.27 14.4L450.74 14.99L454.19 15.64L457.64 16.34L461.06 17.1L464.48 17.91L467.88 18.77L471.26 19.69L474.63 20.66L477.98 21.69L481.32 22.77L484.64 23.9L487.94 25.09L491.21 26.32L494.47 27.61L497.71 28.96L500.93 30.35L504.13 31.8L507.3 33.3L510.45 34.85L513.58 36.45L516.68 38.1L519.76 39.8L522.81 41.56L525.83 43.36L528.83 45.21L531.8 47.11L534.74 49.07L537.65 51.07L540.54 53.12L543.39 55.22L550.46 60.74L557.24 66.49L563.72 72.46L569.92 78.64L575.82 85.02L581.42 91.59L586.73 98.34L591.74 105.26L596.44 112.35L600.85 119.58L604.96 126.96L608.76 134.46L612.26 142.09L615.44 149.84L618.33 157.68L620.9 165.62L623.16 173.64L625.11 181.73L626.74 189.89L628.06 198.1L629.07 206.36L629.76 214.65L630.12 222.96L630.17 231.29L629.9 239.63L629.3 247.95L628.37 256.27L627.13 264.56L625.55 272.82L623.65 281.03L621.41 289.19L618.85 297.29L615.95 305.31L612.71 313.25L609.15 321.1L605.24 328.84L601 336.47L596.41 343.99L591.49 351.37L586.22 358.6L580.66 365.62L574.87 372.36L568.86 378.8L562.64 384.95L556.22 390.81L549.6 396.38L542.81 401.65L535.84 406.62L528.71 411.3L521.42 415.68L514 419.76L506.44 423.53L498.76 427L490.96 430.17L483.06 433.03L475.07 435.59L467 437.84L458.85 439.77L450.64 441.4L442.37 442.71L434.06 443.7L425.71 444.39L417.34 444.75L408.95 444.8L400.56 444.53L392.18 443.93L383.8 443.02L375.46 441.78L367.14 440.21L358.88 438.32L350.66 436.1L342.51 433.55L334.43 430.67L326.44 427.46L318.54 423.92L310.74 420.04L303.05 415.82L295.49 411.27L288.06 406.38L280.77 401.15L211.76 467.87L215.05 471.14L215.81 471.9L215.83 471.92L215.85 471.93L215.86 471.95L216.12 472.22L216.37 472.51L216.6 472.79L216.82 473.09L217.03 473.39L217.22 473.7L217.4 474.01L217.56 474.33L217.71 474.66L217.85 474.99L217.98 475.32L218.09 475.65L218.19 475.99L218.27 476.33L218.34 476.68L218.4 477.03L218.44 477.37L218.47 477.72L218.49 478.07L218.49 478.42L218.48 478.77L218.46 479.12L218.42 479.47L218.37 479.82L218.31 480.16L218.23 480.5L218.14 480.84L218.04 481.18L217.92 481.52L217.79 481.85L217.65 482.17L217.49 482.49L217.32 482.81L217.13 483.12L216.93 483.42L216.72 483.72L216.5 484.01L216.26 484.3L216.01 484.57L215.75 484.84L69.96 627.15L69.83 627.27L69.69 627.39L69.56 627.51L69.42 627.63L69.28 627.74L69.14 627.85L69 627.96L68.86 628.06L68.71 628.16L68.56 628.26L68.41 628.36L68.26 628.45L68.11 628.54L67.95 628.62L67.8 628.71L67.64 628.79L67.48 628.86L67.32 628.94L67.16 629.01L66.99 629.08L66.83 629.14L66.66 629.2L66.5 629.26L66.33 629.32L66.16 629.37L65.99 629.42L65.82 629.46L65.64 629.51L65.47 629.55L65.3 629.58L65.12 629.61L64.95 629.64L64.77 629.67L64.59 629.69L64.41 629.71L64.24 629.72L64.06 629.74L63.88 629.75L63.7 629.75L63.52 629.75L63.4 629.75L63.21 629.75L63.03 629.74L62.85 629.73L62.67 629.71L62.48 629.69L62.3 629.67L62.12 629.65L61.94 629.62L61.77 629.58L61.59 629.55L61.41 629.51L61.24 629.46L61.06 629.42L60.89 629.37L60.72 629.32L60.54 629.26L60.37 629.2L60.21 629.14L60.04 629.07L59.87 629L59.71 628.93L59.54 628.85L59.38 628.77L59.22 628.69L59.06 628.61L58.91 628.52L58.75 628.42L58.6 628.33L58.45 628.23L58.3 628.13L58.15 628.03L58 627.92L57.86 627.81L57.72 627.7L57.58 627.58L57.44 627.47L57.3 627.34L57.17 627.22L57.04 627.09L56.91 626.96L14.14 582.92L13.88 582.65L13.64 582.37L13.41 582.08L13.2 581.78L12.99 581.48L12.81 581.17L12.63 580.86L12.47 580.54L12.32 580.22L12.18 579.89L12.06 579.56L11.95 579.22L11.86 578.89L11.78 578.55L11.71 578.2L11.65 577.86L11.61 577.51L11.58 577.16L11.57 576.82L11.57 576.47L11.58 576.12L11.6 575.77L11.64 575.43L11.69 575.08L11.76 574.74L11.83 574.4L11.92 574.06L12.03 573.72L12.15 573.39L12.28 573.06L12.42 572.74L12.58 572.42L12.75 572.11L12.93 571.8L13.13 571.49L13.34 571.2L13.56 570.91L13.8 570.63L14.05 570.35L14.31 570.08L159.3 428.53L159.57 428.27L159.85 428.03L160.14 427.8L160.44 427.58L160.74 427.38L161.05 427.19L161.36 427.01L161.68 426.84L162.01 426.69L162.34 426.56L162.67 426.43L163.01 426.32L163.35 426.22L163.69 426.14L164.03 426.07L164.38 426.01L164.73 425.96L165.08 425.93L165.43 425.92L165.78 425.91L166.13 425.92L166.48 425.94L166.83 425.98L167.18 426.02L167.52 426.08L167.87 426.16L168.21 426.25L168.55 426.35L168.88 426.46L169.22 426.59L169.54 426.73L169.87 426.88L170.18 427.05L170.5 427.23L170.8 427.42L171.1 427.63L171.4 427.85L171.68 428.08L171.96 428.33L172.23 428.59L175.38 431.72L243.61 365.75L241.23 362.83L238.9 359.86L236.63 356.87L234.42 353.83L232.26 350.77L230.16 347.67L228.11 344.54L226.12 341.37L224.18 338.18L222.31 334.95L220.49 331.7L218.73 328.42L217.02 325.11L215.38 321.77L213.79 318.41L212.27 315.02L210.8 311.61L209.39 308.17L208.04 304.71L206.75 301.23L205.52 297.73L204.35 294.2L203.24 290.66L202.19 287.1L201.21 283.52L200.28 279.92L199.42 276.3L198.62 272.67L197.88 269.03L197.21 265.37L196.6 261.69L196.05 258.01L195.56 254.31L195.14 250.6L194.78 246.88L194.49 243.14L194.26 239.41L194.1 235.66L194 231.9L193.97 228.14L194.15 219.21L194.7 210.37L195.59 201.64L196.83 193.01L198.41 184.49L200.32 176.09L202.55 167.81L205.1 159.68L207.96 151.68L211.12 143.83L214.58 136.13L218.33 128.6L222.36 121.23L226.66 114.04L231.23 107.04L236.07 100.22L241.15 93.6L246.49 87.18L252.06 80.97L257.87 74.98L263.9 69.22L270.15 63.68L276.62 58.39L283.28 53.34L290.15 48.54L297.21 44L304.45 39.72L311.86 35.72L319.45 32L327.2 28.57L335.1 25.43L343.16 22.59L351.35 20.06L359.68 17.85L368.14 15.96L376.71 14.39L385.41 13.16L394.2 12.28L403.1 11.74L412.09 11.56L415.64 11.59L419.19 11.68ZM63.67 607.68L196.27 478.28L165.69 447.88L33.66 576.77L63.67 607.68ZM198.77 454.96L266.51 389.46L266.24 389.22L265.97 388.97L265.69 388.73L265.42 388.48L265.15 388.24L264.88 387.99L264.61 387.75L264.34 387.5L264.07 387.25L263.8 387.01L263.53 386.76L263.26 386.51L262.99 386.26L262.73 386.01L262.46 385.76L262.19 385.51L261.92 385.26L261.66 385.01L261.39 384.76L261.13 384.5L260.86 384.25L260.59 384L260.33 383.74L260.06 383.49L259.8 383.23L259.54 382.97L259.27 382.72L259.01 382.46L258.75 382.2L258.48 381.95L258.22 381.69L257.96 381.43L257.7 381.17L257.44 380.91L257.18 380.65L256.92 380.39L256.66 380.12L256.4 379.86L256.14 379.6L255.88 379.34L188.36 444.61L198.77 454.96ZM400.48 30.12L392.82 30.71L385.19 31.58L377.58 32.75L370 34.21L362.48 35.97L355.01 38.02L347.61 40.37L340.28 43.01L333.03 45.94L325.87 49.17L318.82 52.7L311.88 56.53L305.05 60.65L298.36 65.07L291.8 69.79L285.39 74.81L279.14 80.13L273.1 85.7L267.35 91.46L261.88 97.39L256.7 103.49L251.8 109.76L247.18 116.17L242.85 122.73L238.8 129.42L235.04 136.24L231.56 143.17L228.37 150.21L225.47 157.35L222.86 164.57L220.54 171.88L218.5 179.25L216.75 186.69L215.3 194.18L214.13 201.72L213.26 209.28L212.67 216.88L212.38 224.49L212.38 232.11L212.68 239.72L213.27 247.33L214.15 254.92L215.33 262.47L216.8 269.99L218.57 277.47L220.63 284.89L222.99 292.24L225.65 299.52L228.6 306.72L231.86 313.83L235.41 320.83L239.26 327.73L243.41 334.5L247.87 341.15L252.62 347.67L257.67 354.04L263.03 360.25L263.56 360.83L264.09 361.42L264.63 362L265.16 362.58L265.7 363.15L266.25 363.73L266.79 364.3L267.33 364.87L267.88 365.44L268.43 366.01L268.98 366.57L269.54 367.13L270.1 367.69L270.65 368.25L271.21 368.81L271.78 369.36L272.34 369.91L272.91 370.46L273.48 371.01L274.05 371.55L274.62 372.1L275.2 372.64L275.78 373.17L276.36 373.71L276.94 374.24L277.52 374.78L278.11 375.31L278.7 375.83L279.29 376.36L279.88 376.88L280.47 377.4L281.07 377.92L281.67 378.44L282.27 378.95L282.87 379.46L283.47 379.97L284.08 380.48L284.69 380.98L285.3 381.48L285.91 381.98L288.6 384.12L291.33 386.21L294.08 388.24L296.87 390.23L299.69 392.17L302.53 394.06L305.41 395.89L308.32 397.68L311.25 399.41L314.21 401.1L317.19 402.73L320.21 404.31L323.24 405.84L326.3 407.32L329.39 408.74L332.49 410.11L335.62 411.43L338.77 412.7L341.95 413.91L345.14 415.07L348.35 416.17L351.58 417.22L354.82 418.22L358.09 419.16L361.37 420.05L364.67 420.88L367.98 421.65L371.3 422.37L374.64 423.04L378 423.64L381.36 424.2L384.74 424.69L388.13 425.13L391.53 425.51L394.93 425.83L398.35 426.1L401.77 426.31L405.21 426.46L408.64 426.55L412.09 426.58L415.76 426.55L419.43 426.45L423.09 426.28L426.74 426.05L430.38 425.75L434.01 425.39L437.63 424.96L441.24 424.46L444.83 423.9L448.41 423.28L451.97 422.59L455.52 421.84L459.05 421.02L462.56 420.15L466.06 419.21L469.54 418.2L472.99 417.14L476.43 416.01L479.84 414.82L483.24 413.57L486.61 412.26L489.95 410.89L493.27 409.46L496.56 407.97L499.83 406.42L503.07 404.81L506.28 403.14L509.46 401.42L512.61 399.63L515.73 397.79L518.82 395.89L521.88 393.93L524.9 391.92L527.89 389.84L530.84 387.72L533.76 385.53L536.64 383.29L539.48 381L542.29 378.65L545.05 376.24L551.09 370.68L556.84 364.92L562.31 358.99L567.49 352.89L572.39 346.62L577.01 340.21L581.34 333.65L585.39 326.96L589.15 320.14L592.63 313.21L595.81 306.17L598.71 299.03L601.33 291.8L603.65 284.5L605.69 277.12L607.43 269.69L608.89 262.2L610.06 254.66L610.93 247.09L611.51 239.5L611.8 231.89L611.8 224.27L611.51 216.66L610.92 209.05L610.04 201.46L608.86 193.9L607.39 186.38L605.62 178.91L603.56 171.49L601.2 164.14L598.54 156.86L595.58 149.66L592.33 142.55L588.78 135.55L584.92 128.65L580.77 121.87L576.32 115.22L571.57 108.71L566.51 102.34L561.16 96.13L555.55 90.14L549.76 84.42L543.78 78.99L537.64 73.84L531.33 68.97L524.87 64.39L518.27 60.09L511.53 56.07L504.67 52.33L497.69 48.88L490.6 45.71L483.42 42.83L476.14 40.23L468.79 37.93L461.36 35.9L453.87 34.17L446.33 32.72L438.75 31.57L431.13 30.7L423.48 30.12L415.82 29.83L408.15 29.83L400.48 30.12Z" id="fr8LMlhom"></path><path d="M428.6 29.86L436.71 30.68L444.72 31.81L452.63 33.25L460.43 35L468.11 37.04L475.66 39.37L483.09 41.98L490.37 44.87L497.52 48.03L504.51 51.46L511.35 55.14L518.02 59.08L524.53 63.26L530.86 67.68L537 72.33L542.96 77.2L548.73 82.3L554.29 87.61L559.64 93.12L564.78 98.84L569.69 104.75L574.38 110.84L578.84 117.12L583.05 123.57L587.02 130.19L590.74 136.97L594.19 143.91L597.38 150.99L600.29 158.22L602.93 165.58L605.28 173.08L607.33 180.69L609.09 188.43L610.55 196.27L611.69 204.22L612.51 212.26L613.01 220.39L613.18 228.61L613.01 236.83L612.51 244.97L611.69 253.01L610.55 260.96L609.09 268.8L607.33 276.54L605.28 284.15L602.93 291.64L600.29 299.01L597.38 306.23L594.19 313.32L590.74 320.26L587.02 327.04L583.05 333.66L578.84 340.11L574.38 346.39L569.69 352.48L564.78 358.39L559.64 364.11L554.29 369.62L548.73 374.93L542.96 380.03L537 384.9L530.86 389.55L524.53 393.97L518.02 398.15L511.35 402.09L504.51 405.77L497.52 409.2L490.37 412.36L483.09 415.25L475.66 417.86L468.11 420.19L460.43 422.23L452.63 423.98L444.72 425.42L436.71 426.55L428.6 427.37L420.4 427.86L412.11 428.03L408.64 428.01L405.17 427.93L401.71 427.8L398.26 427.6L394.82 427.34L391.39 427.03L387.96 426.66L384.55 426.23L381.14 425.74L377.75 425.19L374.37 424.58L371.01 423.92L367.66 423.2L364.32 422.43L361 421.59L357.69 420.71L354.4 419.76L351.13 418.76L347.88 417.71L344.65 416.59L341.43 415.43L338.24 414.21L335.07 412.93L331.92 411.6L328.79 410.22L325.68 408.78L322.6 407.29L319.55 405.75L316.52 404.15L313.51 402.5L310.54 400.8L307.59 399.05L304.67 397.24L301.78 395.38L298.92 393.47L296.08 391.51L293.29 389.5L290.52 387.44L287.78 385.33L285.08 383.17L284.46 382.66L283.85 382.16L283.24 381.65L282.62 381.14L282.01 380.62L281.41 380.11L280.8 379.59L280.2 379.07L279.6 378.55L279 378.02L278.4 377.5L277.8 376.97L277.21 376.44L276.62 375.9L276.03 375.37L275.44 374.83L274.86 374.29L274.28 373.75L273.69 373.2L273.12 372.66L272.54 372.11L271.97 371.56L271.39 371L270.82 370.45L270.26 369.89L269.69 369.33L269.13 368.77L268.57 368.2L268.01 367.64L267.45 367.07L266.89 366.5L266.34 365.93L265.79 365.35L265.24 364.77L264.7 364.19L264.15 363.61L263.61 363.03L263.07 362.44L262.54 361.86L262 361.27L259.57 358.51L257.19 355.71L254.86 352.87L252.6 350L250.39 347.08L248.23 344.14L246.13 341.15L244.1 338.14L242.11 335.09L240.19 332.01L238.32 328.89L236.52 325.75L234.77 322.57L233.08 319.37L231.45 316.13L229.88 312.87L228.37 309.59L226.92 306.28L225.53 302.94L224.21 299.58L222.94 296.19L221.74 292.78L220.6 289.36L219.52 285.91L218.51 282.44L217.55 278.95L216.66 275.44L215.84 271.92L215.08 268.38L214.38 264.82L213.75 261.25L213.18 257.67L212.68 254.07L212.25 250.46L211.88 246.84L211.58 243.2L211.34 239.56L211.17 235.91L211.07 232.25L211.04 228.58L211.2 220.36L211.7 212.23L212.53 204.18L213.67 196.24L215.12 188.39L216.88 180.66L218.94 173.05L221.29 165.55L223.92 158.19L226.84 150.96L230.03 143.88L233.48 136.94L237.19 130.16L241.16 123.54L245.38 117.09L249.83 110.81L254.52 104.72L259.44 98.81L264.58 93.1L269.93 87.58L275.49 82.27L281.25 77.18L287.21 72.3L293.36 67.65L299.69 63.23L306.19 59.06L312.87 55.12L319.7 51.44L326.7 48.01L333.84 44.85L341.13 41.96L348.55 39.35L356.11 37.02L363.79 34.98L371.59 33.24L379.49 31.8L387.51 30.67L395.62 29.86L403.82 29.36L412.11 29.2L420.4 29.37L428.6 29.86ZM394.72 49.6L387.79 50.39L380.88 51.45L374.01 52.77L367.18 54.36L360.4 56.21L353.68 58.33L347.03 60.72L340.45 63.38L333.95 66.3L327.55 69.5L321.25 72.96L315.05 76.69L308.97 80.7L303.02 84.97L297.2 89.52L291.52 94.34L286.04 99.38L280.81 104.59L275.85 109.96L271.14 115.49L266.69 121.17L262.49 126.98L258.56 132.92L254.88 138.98L251.46 145.16L248.3 151.44L245.41 157.82L242.77 164.28L240.4 170.83L238.28 177.45L236.43 184.13L234.84 190.87L233.52 197.66L232.45 204.48L231.66 211.34L231.12 218.22L230.85 225.12L230.85 232.02L231.12 238.93L231.64 245.82L232.44 252.7L233.51 259.55L234.84 266.36L236.44 273.14L238.31 279.86L240.45 286.53L242.85 293.12L245.53 299.65L248.48 306.09L251.7 312.44L255.19 318.69L258.96 324.84L263 330.87L267.31 336.77L271.89 342.54L276.75 348.18L277.23 348.71L277.72 349.24L278.2 349.77L278.69 350.3L279.18 350.82L279.68 351.34L280.17 351.87L280.67 352.39L281.17 352.9L281.67 353.42L282.17 353.93L282.68 354.44L283.18 354.95L283.69 355.46L284.2 355.97L284.72 356.47L285.23 356.97L285.75 357.47L286.27 357.97L286.79 358.46L287.31 358.96L287.83 359.45L288.36 359.94L288.89 360.43L289.42 360.91L289.95 361.4L290.48 361.88L291.02 362.36L291.56 362.84L292.1 363.31L292.64 363.79L293.18 364.26L293.72 364.73L294.27 365.2L294.82 365.66L295.37 366.12L295.92 366.59L296.48 367.04L297.03 367.5L297.59 367.96L300.03 369.91L302.49 371.81L304.99 373.67L307.51 375.48L310.06 377.25L312.64 378.97L315.25 380.64L317.88 382.27L320.54 383.85L323.22 385.38L325.93 386.87L328.66 388.31L331.42 389.7L334.2 391.04L336.99 392.33L339.81 393.58L342.66 394.78L345.52 395.93L348.39 397.03L351.29 398.08L354.21 399.08L357.14 400.03L360.09 400.93L363.05 401.78L366.03 402.58L369.03 403.33L372.04 404.03L375.06 404.68L378.09 405.27L381.14 405.82L384.2 406.31L387.26 406.75L390.34 407.14L393.43 407.48L396.52 407.76L399.63 407.99L402.74 408.16L405.86 408.29L408.98 408.36L412.11 408.37L415.44 408.34L418.77 408.25L422.08 408.1L425.39 407.89L428.7 407.62L431.99 407.29L435.27 406.9L438.54 406.45L441.8 405.95L445.04 405.38L448.27 404.76L451.49 404.08L454.69 403.34L457.88 402.55L461.05 401.7L464.2 400.79L467.34 399.82L470.45 398.81L473.55 397.73L476.63 396.6L479.68 395.41L482.72 394.17L485.73 392.88L488.71 391.53L491.68 390.13L494.61 388.67L497.53 387.16L500.41 385.6L503.27 383.99L506.1 382.32L508.9 380.6L511.68 378.83L514.42 377L517.13 375.13L519.81 373.2L522.45 371.23L525.07 369.2L527.65 367.13L530.19 365L532.7 362.82L538.18 357.78L543.4 352.57L548.37 347.2L553.08 341.67L557.53 335.99L561.72 330.18L565.66 324.24L569.33 318.18L572.75 312L575.91 305.72L578.81 299.34L581.44 292.88L583.82 286.33L585.93 279.71L587.78 273.03L589.37 266.29L590.7 259.5L591.76 252.68L592.56 245.82L593.09 238.94L593.36 232.04L593.36 225.14L593.1 218.23L592.57 211.34L591.77 204.47L590.71 197.62L589.38 190.8L587.78 184.03L585.91 177.3L583.77 170.64L581.36 164.04L578.68 157.51L575.73 151.07L572.51 144.72L569.02 138.47L565.26 132.32L561.22 126.29L556.91 120.39L552.32 114.62L547.47 108.98L542.38 103.55L537.13 98.37L531.71 93.44L526.13 88.77L520.41 84.36L514.55 80.2L508.56 76.3L502.45 72.65L496.22 69.26L489.89 66.13L483.46 63.25L476.94 60.64L470.34 58.28L463.66 56.19L456.93 54.35L450.13 52.78L443.29 51.46L436.4 50.41L429.49 49.62L422.55 49.09L415.6 48.82L408.63 48.82L401.67 49.08L394.72 49.6Z" id="g1crZwnSYV"></path><path d="M191.25 464.93L177.47 450.66L257.14 373.73L270.91 388L191.25 464.93Z" id="a1NpZS9b8d"></path><path d="M63.77 608.89L30.62 574.57L165.41 444.41L198.56 478.73L63.77 608.89Z" id="a3yTnzKNZ6"></path></defs><g><g><g><use xlink:href="#fr8LMlhom" opacity="1" fill="#9295a1" fill-opacity="1"></use><g><use xlink:href="#fr8LMlhom" opacity="1" fill-opacity="0" stroke="#000000" stroke-width="1" stroke-opacity="0"></use></g></g><g><use xlink:href="#g1crZwnSYV" opacity="1" fill="#9295a1" fill-opacity="1"></use><g><use xlink:href="#g1crZwnSYV" opacity="1" fill-opacity="0" stroke="#9295a1" stroke-width="1" stroke-opacity="1"></use></g></g><g><use xlink:href="#a1NpZS9b8d" opacity="1" fill="#9295a1" fill-opacity="1"></use></g><g><use xlink:href="#a3yTnzKNZ6" opacity="1" fill="#9295a1" fill-opacity="1"></use></g></g></g></svg>