<?xml version="1.0" encoding="UTF-8" standalone="no"?>
<!DOCTYPE svg PUBLIC "-//W3C//DTD SVG 1.1//EN" "http://www.w3.org/Graphics/SVG/1.1/DTD/svg11.dtd">
<svg version="1.1" xmlns="http://www.w3.org/2000/svg" xmlns:xlink="http://www.w3.org/1999/xlink" preserveAspectRatio="xMidYMid meet" viewBox="0 0 640 640" width="640" height="640"><defs><path d="M297.02 316.61C297.02 230.09 297.02 182.03 297.02 172.42C297.02 160.58 306.62 151.04 318.4 151.04C330.24 151.04 339.78 160.64 339.78 172.42C339.78 187.72 339.78 310.14 339.78 325.44C339.78 325.82 339.78 326.14 339.78 326.53C339.78 326.72 339.78 326.85 339.71 327.04C339.71 327.23 339.71 327.42 339.65 327.62C339.65 327.81 339.58 328 339.58 328.26C339.58 328.38 339.58 328.51 339.52 328.64C339.46 328.83 339.46 329.09 339.39 329.28C339.39 329.41 339.33 329.54 339.33 329.66C339.26 329.86 339.26 330.11 339.2 330.3C339.2 330.43 339.14 330.56 339.14 330.69C339.07 330.88 339.01 331.14 338.94 331.33C338.88 331.46 338.88 331.58 338.82 331.71C338.75 331.9 338.69 332.1 338.62 332.29C338.56 332.42 338.56 332.54 338.5 332.74C338.43 332.93 338.37 333.06 338.3 333.25C338.24 333.44 338.18 333.57 338.11 333.76C338.05 333.89 337.98 334.08 337.92 334.21C337.86 334.4 337.79 334.59 337.66 334.72C337.6 334.85 337.54 334.98 337.47 335.1C337.41 335.3 337.28 335.49 337.15 335.68C337.09 335.81 337.02 335.87 336.96 336C336.83 336.19 336.7 336.38 336.64 336.58C336.58 336.64 336.51 336.77 336.45 336.83C336.32 337.02 336.19 337.22 336.06 337.41C336 337.47 335.94 337.6 335.87 337.66C335.74 337.86 335.62 338.05 335.49 338.24C335.42 338.37 335.36 338.43 335.23 338.56C335.1 338.75 334.98 338.88 334.85 339.07C334.72 339.2 334.66 339.33 334.53 339.46C334.4 339.58 334.27 339.71 334.14 339.9C333.95 340.1 333.76 340.35 333.5 340.54C333.44 340.61 333.44 340.61 333.38 340.67C325.08 348.97 258.73 415.32 250.43 423.62C246.27 427.78 240.77 429.89 235.33 429.89C229.82 429.89 224.38 427.78 220.22 423.62C212.03 415.17 212.03 401.6 220.35 393.28C230.57 383.06 256.13 357.5 297.02 316.61Z" id="a5Sux483lJ"></path><path d="M345.72 7.44L358.37 8.72L370.86 10.5L383.2 12.77L395.36 15.51L407.33 18.72L419.12 22.39L430.7 26.5L442.06 31.05L453.2 36.02L464.11 41.41L474.78 47.2L485.19 53.39L495.33 59.96L505.2 66.91L514.79 74.22L524.08 81.89L533.07 89.91L541.74 98.26L550.09 106.93L558.11 115.92L565.78 125.21L573.09 134.8L580.04 144.67L586.61 154.81L592.8 165.22L598.59 175.89L603.98 186.8L608.95 197.94L613.5 209.3L617.61 220.88L621.28 232.67L624.49 244.64L627.23 256.8L629.5 269.14L631.28 281.63L632.56 294.28L633.34 307.07L633.6 320L633.34 332.93L632.56 345.72L631.28 358.37L629.5 370.86L627.23 383.2L624.49 395.36L621.28 407.33L617.61 419.12L613.5 430.7L608.95 442.06L603.98 453.2L598.59 464.11L592.8 474.78L586.61 485.19L580.04 495.33L573.09 505.2L565.78 514.79L558.11 524.08L550.09 533.07L541.74 541.74L533.07 550.09L524.08 558.11L514.79 565.78L505.2 573.09L495.33 580.04L485.19 586.61L474.78 592.8L464.11 598.59L453.2 603.98L442.06 608.95L430.7 613.5L419.12 617.61L407.33 621.28L395.36 624.49L383.2 627.23L370.86 629.5L358.37 631.28L345.72 632.56L332.93 633.34L320 633.6L307.07 633.34L294.28 632.56L281.63 631.28L269.14 629.5L256.8 627.23L244.64 624.49L232.67 621.28L220.88 617.61L209.3 613.5L197.94 608.95L186.8 603.98L175.89 598.59L165.22 592.8L154.81 586.61L144.67 580.04L134.8 573.09L125.21 565.78L115.92 558.11L106.93 550.09L98.26 541.74L89.91 533.07L81.89 524.08L74.22 514.79L66.91 505.2L59.96 495.33L53.39 485.19L47.2 474.78L41.41 464.11L36.02 453.2L31.05 442.06L26.5 430.7L22.39 419.12L18.72 407.33L15.51 395.36L12.77 383.2L10.5 370.86L8.72 358.37L7.44 345.72L6.66 332.93L6.4 320L6.66 307.07L7.44 294.28L8.72 281.63L10.5 269.14L12.77 256.8L15.51 244.64L18.72 232.67L22.39 220.88L26.5 209.3L31.05 197.94L36.02 186.8L41.41 175.89L47.2 165.22L53.39 154.81L59.96 144.67L66.91 134.8L74.22 125.21L81.89 115.92L89.91 106.93L98.26 98.26L106.93 89.91L115.92 81.89L125.21 74.22L134.8 66.91L144.67 59.96L154.81 53.39L165.22 47.2L175.89 41.41L186.8 36.02L197.94 31.05L209.3 26.5L220.88 22.39L232.67 18.72L244.64 15.51L256.8 12.77L269.14 10.5L281.63 8.72L294.28 7.44L307.07 6.66L320 6.4L332.93 6.66L345.72 7.44ZM308.15 63.73L305.75 63.85L303.35 64L300.96 64.16L298.57 64.35L296.19 64.56L293.81 64.79L291.43 65.04L289.06 65.31L286.69 65.61L284.33 65.93L281.97 66.27L279.61 66.63L277.26 67.01L274.92 67.41L272.58 67.84L270.25 68.29L267.92 68.76L265.59 69.25L263.27 69.76L260.96 70.29L258.65 70.85L256.35 71.43L254.05 72.03L251.76 72.65L249.47 73.29L247.19 73.95L244.91 74.64L242.64 75.34L240.38 76.07L238.12 76.82L235.87 77.59L233.63 78.38L231.39 79.2L229.15 80.03L226.93 80.89L224.71 81.76L222.49 82.66L220.29 83.58L218.17 84.49L216.06 85.42L213.95 86.36L211.86 87.32L209.78 88.3L207.71 89.3L205.65 90.31L203.6 91.34L201.57 92.4L199.54 93.47L197.52 94.55L195.51 95.66L193.52 96.78L191.53 97.92L189.56 99.08L187.59 100.25L185.64 101.44L183.7 102.65L181.77 103.88L179.85 105.13L177.94 106.39L176.04 107.67L174.16 108.97L172.28 110.28L170.42 111.61L168.57 112.96L166.73 114.33L164.9 115.71L163.08 117.11L161.28 118.53L159.48 119.97L157.7 121.42L155.93 122.88L154.17 124.37L152.42 125.87L150.69 127.39L148.97 128.93L147.26 130.48L145.56 132.05L143.87 133.63L166.59 156.35L166.8 156.57L166.99 156.79L167.18 157.01L167.35 157.24L167.52 157.48L167.67 157.72L167.81 157.97L167.94 158.21L168.07 158.47L168.18 158.72L168.28 158.98L168.37 159.25L168.45 159.51L168.51 159.78L168.57 160.05L168.62 160.32L168.66 160.59L168.68 160.86L168.7 161.13L168.7 161.41L168.7 161.68L168.68 161.95L168.66 162.23L168.62 162.5L168.57 162.77L168.51 163.04L168.45 163.31L168.37 163.57L168.28 163.83L168.18 164.09L168.07 164.35L167.94 164.6L167.81 164.85L167.67 165.1L167.52 165.34L167.35 165.57L167.18 165.8L166.99 166.03L166.8 166.25L166.59 166.46L166.49 166.57L166.38 166.67L166.27 166.77L166.16 166.87L166.05 166.96L165.93 167.05L165.82 167.14L165.7 167.22L165.59 167.31L165.47 167.39L165.35 167.47L165.23 167.54L165.11 167.61L164.99 167.68L164.86 167.75L164.74 167.82L164.61 167.88L164.49 167.94L164.36 167.99L164.23 168.05L164.1 168.1L163.97 168.15L163.84 168.19L163.71 168.24L163.58 168.28L163.45 168.32L163.31 168.35L163.18 168.39L163.05 168.42L162.91 168.44L162.78 168.47L162.64 168.49L162.5 168.51L162.37 168.53L162.23 168.54L162.09 168.55L161.95 168.56L161.81 168.57L161.68 168.57L161.54 168.58L161.4 168.57L161.26 168.57L161.12 168.56L160.98 168.55L160.84 168.54L160.71 168.53L160.57 168.51L160.43 168.49L160.3 168.47L160.16 168.44L160.03 168.42L159.89 168.39L159.76 168.35L159.62 168.32L159.49 168.28L159.36 168.24L159.23 168.19L159.1 168.15L158.97 168.1L158.84 168.05L158.71 167.99L158.58 167.94L158.46 167.88L158.33 167.82L158.21 167.75L158.09 167.68L157.96 167.61L157.84 167.54L157.72 167.47L157.6 167.39L157.49 167.31L157.37 167.22L157.25 167.14L157.14 167.05L157.03 166.96L156.91 166.87L156.8 166.77L156.69 166.67L156.59 166.57L156.48 166.46L133.76 143.74L132.17 145.43L130.61 147.13L129.05 148.84L127.52 150.56L126 152.3L124.5 154.04L123.02 155.8L121.55 157.57L120.1 159.35L118.67 161.15L117.25 162.95L115.85 164.77L114.47 166.6L113.11 168.44L111.76 170.29L110.43 172.15L109.12 174.03L107.82 175.91L106.54 177.81L105.28 179.72L104.04 181.64L102.81 183.57L101.6 185.51L100.41 187.46L99.23 189.43L98.08 191.4L96.94 193.39L95.81 195.38L94.71 197.39L93.62 199.41L92.55 201.44L91.5 203.48L90.46 205.53L89.45 207.58L88.45 209.66L87.46 211.74L86.5 213.83L85.55 215.93L84.62 218.04L83.71 220.16L82.79 222.37L81.89 224.59L81.01 226.81L80.16 229.04L79.32 231.28L78.51 233.52L77.72 235.77L76.95 238.02L76.2 240.28L75.47 242.54L74.76 244.81L74.08 247.09L73.42 249.37L72.77 251.66L72.15 253.95L71.56 256.25L70.98 258.55L70.42 260.86L69.89 263.17L69.38 265.49L68.89 267.81L68.42 270.14L67.97 272.47L67.54 274.81L67.14 277.15L66.76 279.5L66.39 281.85L66.06 284.21L65.74 286.57L65.44 288.94L65.17 291.31L64.92 293.68L64.68 296.06L64.48 298.45L64.29 300.83L64.12 303.22L63.98 305.62L63.86 308.02L63.76 310.42L63.68 312.83L95.81 312.83L96.1 312.84L96.4 312.86L96.69 312.88L96.97 312.93L97.25 312.98L97.53 313.04L97.8 313.11L98.07 313.2L98.33 313.29L98.59 313.39L98.84 313.51L99.09 313.63L99.33 313.76L99.57 313.9L99.8 314.05L100.02 314.21L100.24 314.37L100.45 314.55L100.65 314.73L100.85 314.92L101.04 315.12L101.22 315.32L101.39 315.53L101.55 315.75L101.71 315.97L101.86 316.2L102 316.44L102.13 316.68L102.25 316.93L102.36 317.18L102.46 317.44L102.55 317.7L102.64 317.96L102.71 318.24L102.77 318.51L102.82 318.79L102.86 319.07L102.89 319.36L102.91 319.64L102.91 319.94L102.91 320.23L102.89 320.52L102.86 320.81L102.82 321.1L102.77 321.38L102.7 321.66L102.63 321.93L102.55 322.2L102.45 322.46L102.35 322.72L102.24 322.97L102.12 323.22L101.98 323.46L101.84 323.7L101.69 323.93L101.54 324.15L101.37 324.37L101.2 324.58L101.01 324.78L100.82 324.98L100.63 325.16L100.42 325.34L100.21 325.52L100 325.68L99.77 325.84L99.54 325.99L99.31 326.13L99.06 326.26L98.82 326.38L98.57 326.49L98.31 326.59L98.05 326.68L97.78 326.76L97.51 326.84L97.23 326.9L96.96 326.95L96.67 326.99L96.39 327.02L96.1 327.03L95.81 327.04L63.68 327.04L63.76 329.45L63.86 331.85L63.98 334.25L64.12 336.65L64.29 339.04L64.48 341.43L64.68 343.81L64.92 346.19L65.17 348.57L65.44 350.94L65.74 353.31L66.06 355.67L66.39 358.03L66.76 360.39L67.14 362.74L67.54 365.08L67.97 367.42L68.42 369.75L68.89 372.08L69.38 374.41L69.89 376.73L70.42 379.04L70.98 381.35L71.56 383.65L72.15 385.95L72.77 388.24L73.42 390.53L74.08 392.81L74.76 395.09L75.47 397.36L76.2 399.62L76.95 401.88L77.72 404.13L78.51 406.37L79.32 408.61L80.16 410.85L81.01 413.07L81.89 415.29L82.79 417.51L83.71 419.71L84.61 421.84L85.53 423.96L86.47 426.07L87.43 428.17L88.41 430.26L89.4 432.34L90.41 434.4L91.44 436.46L92.49 438.5L93.56 440.54L94.64 442.56L95.74 444.57L96.86 446.57L98 448.56L99.15 450.54L100.33 452.51L101.52 454.46L102.72 456.41L103.95 458.34L105.19 460.26L106.45 462.17L107.73 464.07L109.02 465.96L110.34 467.84L111.67 469.7L113.01 471.56L114.38 473.4L115.76 475.23L117.15 477.04L118.57 478.85L120 480.65L121.45 482.43L122.91 484.2L124.39 485.96L125.89 487.7L127.41 489.44L128.94 491.16L130.49 492.87L132.05 494.57L133.63 496.26L156.35 473.54L156.57 473.33L156.79 473.13L157.01 472.95L157.24 472.78L157.48 472.61L157.72 472.46L157.97 472.32L158.21 472.18L158.47 472.06L158.72 471.95L158.98 471.85L159.25 471.76L159.51 471.68L159.78 471.61L160.05 471.56L160.32 471.51L160.59 471.47L160.86 471.45L161.13 471.43L161.41 471.42L161.68 471.43L161.95 471.45L162.23 471.47L162.5 471.51L162.77 471.56L163.04 471.61L163.31 471.68L163.57 471.76L163.83 471.85L164.09 471.95L164.35 472.06L164.6 472.18L164.85 472.32L165.1 472.46L165.34 472.61L165.57 472.78L165.8 472.95L166.03 473.13L166.25 473.33L166.46 473.54L166.67 473.75L166.87 473.97L167.05 474.2L167.22 474.43L167.39 474.66L167.54 474.9L167.68 475.15L167.82 475.4L167.94 475.65L168.05 475.91L168.15 476.17L168.24 476.43L168.32 476.69L168.39 476.96L168.44 477.23L168.49 477.5L168.53 477.77L168.55 478.05L168.57 478.32L168.58 478.59L168.57 478.87L168.55 479.14L168.53 479.41L168.49 479.68L168.44 479.95L168.39 480.22L168.32 480.49L168.24 480.75L168.15 481.02L168.05 481.28L167.94 481.53L167.82 481.79L167.68 482.03L167.54 482.28L167.39 482.52L167.22 482.76L167.05 482.99L166.87 483.21L166.67 483.43L166.46 483.65L143.74 506.37L145.43 507.95L147.13 509.52L148.84 511.07L150.56 512.61L152.3 514.13L154.04 515.63L155.8 517.11L157.57 518.58L159.35 520.03L161.15 521.46L162.95 522.88L164.77 524.27L166.6 525.66L168.44 527.02L170.29 528.37L172.15 529.7L174.03 531.01L175.91 532.31L177.81 533.59L179.72 534.85L181.64 536.09L183.57 537.32L185.51 538.53L187.46 539.72L189.43 540.9L191.4 542.05L193.39 543.19L195.38 544.32L197.39 545.42L199.41 546.51L201.44 547.58L203.48 548.63L205.53 549.67L207.58 550.68L209.66 551.68L211.74 552.66L213.83 553.63L215.93 554.58L218.04 555.5L220.16 556.42L222.37 557.34L224.59 558.24L226.81 559.11L229.04 559.97L231.28 560.8L233.52 561.62L235.77 562.41L238.02 563.18L240.28 563.93L242.54 564.66L244.81 565.36L247.09 566.05L249.37 566.71L251.66 567.35L253.95 567.97L256.25 568.57L258.55 569.15L260.86 569.71L263.17 570.24L265.49 570.75L267.81 571.24L270.14 571.71L272.47 572.16L274.81 572.59L277.15 572.99L279.5 573.37L281.85 573.73L284.21 574.07L286.57 574.39L288.94 574.69L291.31 574.96L293.68 575.21L296.06 575.44L298.45 575.65L300.83 575.84L303.22 576L305.62 576.15L308.02 576.27L310.42 576.37L312.83 576.45L312.83 544.32L312.83 544.17L312.84 544.02L312.84 543.88L312.85 543.73L312.87 543.59L312.88 543.44L312.9 543.3L312.92 543.16L312.95 543.01L312.97 542.87L313 542.73L313.03 542.59L313.07 542.46L313.11 542.32L313.15 542.19L313.19 542.05L313.23 541.92L313.28 541.79L313.33 541.66L313.38 541.53L313.44 541.4L313.5 541.27L313.56 541.15L313.62 541.03L313.69 540.9L313.75 540.78L313.82 540.66L313.9 540.55L313.97 540.43L314.05 540.32L314.13 540.2L314.21 540.09L314.29 539.98L314.38 539.87L314.47 539.77L314.56 539.66L314.65 539.56L314.75 539.46L314.84 539.36L314.94 539.26L315.04 539.17L315.14 539.08L315.24 538.98L315.34 538.89L315.45 538.81L315.55 538.72L315.66 538.64L315.77 538.55L315.88 538.47L315.99 538.39L316.11 538.32L316.23 538.24L316.34 538.17L316.46 538.1L316.58 538.03L316.71 537.97L316.83 537.9L316.95 537.84L317.08 537.78L317.21 537.73L317.34 537.67L317.47 537.62L317.6 537.57L317.73 537.53L317.87 537.48L318 537.44L318.14 537.4L318.27 537.37L318.41 537.33L318.55 537.3L318.69 537.27L318.84 537.25L318.98 537.23L319.12 537.21L319.27 537.19L319.41 537.18L319.56 537.17L319.7 537.16L319.85 537.15L320 537.15L320.3 537.16L320.59 537.18L320.88 537.2L321.16 537.25L321.44 537.3L321.72 537.36L321.99 537.43L322.26 537.52L322.53 537.61L322.78 537.71L323.04 537.83L323.28 537.95L323.53 538.08L323.76 538.22L323.99 538.37L324.21 538.53L324.43 538.69L324.64 538.87L324.84 539.05L325.04 539.24L325.23 539.44L325.41 539.64L325.58 539.85L325.75 540.07L325.9 540.29L326.05 540.52L326.19 540.76L326.32 541L326.44 541.25L326.55 541.5L326.65 541.76L326.75 542.02L326.83 542.28L326.9 542.56L326.96 542.83L327.01 543.11L327.05 543.39L327.08 543.68L327.1 543.96L327.1 544.26L327.1 576.38L329.51 576.31L331.92 576.21L334.32 576.08L336.71 575.94L339.11 575.78L341.49 575.59L343.88 575.38L346.26 575.15L348.64 574.9L351.01 574.62L353.37 574.33L355.74 574.01L358.1 573.67L360.45 573.31L362.8 572.93L365.14 572.52L367.48 572.1L369.82 571.65L372.15 571.18L374.47 570.69L376.79 570.18L379.11 569.64L381.41 569.09L383.72 568.51L386.02 567.91L388.31 567.29L390.6 566.65L392.88 565.99L395.15 565.3L397.42 564.59L399.68 563.87L401.94 563.12L404.19 562.35L406.44 561.55L408.68 560.74L410.91 559.91L413.14 559.05L415.36 558.17L417.57 557.27L419.78 556.35L421.9 555.45L424.01 554.52L426.11 553.58L428.2 552.62L430.28 551.64L432.35 550.64L434.41 549.62L436.46 548.59L438.5 547.54L440.53 546.47L442.54 545.38L444.55 544.28L446.55 543.16L448.53 542.02L450.51 540.86L452.47 539.68L454.42 538.49L456.37 537.28L458.3 536.05L460.22 534.81L462.12 533.55L464.02 532.27L465.91 530.97L467.78 529.65L469.65 528.32L471.5 526.97L473.34 525.61L475.17 524.22L476.98 522.82L478.79 521.41L480.58 519.97L482.36 518.52L484.14 517.05L485.89 515.57L487.64 514.06L489.37 512.55L491.1 511.01L492.81 509.46L494.51 507.89L496.19 506.3L473.47 483.58L473.27 483.37L473.07 483.15L472.89 482.92L472.71 482.69L472.55 482.46L472.39 482.22L472.25 481.97L472.12 481.72L472 481.47L471.89 481.21L471.79 480.95L471.7 480.69L471.62 480.43L471.55 480.16L471.49 479.89L471.44 479.62L471.41 479.35L471.38 479.07L471.37 478.8L471.36 478.53L471.37 478.25L471.38 477.98L471.41 477.71L471.44 477.44L471.49 477.17L471.55 476.9L471.62 476.63L471.7 476.37L471.79 476.1L471.89 475.84L472 475.59L472.12 475.33L472.25 475.09L472.39 474.84L472.55 474.6L472.71 474.36L472.89 474.13L473.07 473.91L473.27 473.69L473.47 473.47L473.69 473.27L473.91 473.08L474.13 472.9L474.36 472.73L474.6 472.57L474.84 472.42L475.09 472.28L475.33 472.15L475.59 472.03L475.84 471.92L476.1 471.83L476.37 471.74L476.63 471.66L476.9 471.59L477.17 471.54L477.44 471.49L477.71 471.45L477.98 471.43L478.25 471.41L478.53 471.41L478.8 471.41L479.07 471.43L479.35 471.45L479.62 471.49L479.89 471.54L480.16 471.59L480.43 471.66L480.69 471.74L480.95 471.83L481.21 471.92L481.47 472.03L481.72 472.15L481.97 472.28L482.22 472.42L482.46 472.57L482.69 472.73L482.92 472.9L483.15 473.08L483.37 473.27L483.58 473.47L506.3 496.19L507.89 494.51L509.46 492.81L511.01 491.1L512.54 489.37L514.06 487.64L515.56 485.89L517.05 484.14L518.51 482.36L519.96 480.58L521.4 478.79L522.81 476.98L524.21 475.17L525.59 473.34L526.96 471.5L528.3 469.65L529.63 467.78L530.95 465.91L532.24 464.02L533.52 462.12L534.78 460.22L536.03 458.3L537.26 456.37L538.46 454.42L539.66 452.47L540.83 450.51L541.99 448.53L543.13 446.55L544.25 444.55L545.36 442.54L546.44 440.53L547.51 438.5L548.57 436.46L549.6 434.41L550.62 432.35L551.62 430.28L552.6 428.2L553.56 426.11L554.51 424.01L555.44 421.9L556.35 419.78L557.27 417.56L558.17 415.35L559.05 413.12L559.91 410.89L560.74 408.66L561.55 406.42L562.35 404.17L563.12 401.92L563.87 399.66L564.59 397.39L565.3 395.12L565.99 392.85L566.65 390.57L567.29 388.28L567.91 385.99L568.51 383.69L569.09 381.39L569.64 379.08L570.18 376.77L570.69 374.45L571.18 372.12L571.65 369.8L572.1 367.46L572.52 365.13L572.93 362.78L573.31 360.43L573.67 358.08L574.01 355.73L574.33 353.36L574.62 351L574.9 348.63L575.15 346.25L575.38 343.87L575.59 341.49L575.78 339.1L575.94 336.71L576.08 334.32L576.21 331.92L576.31 329.51L576.38 327.1L544.26 327.1L543.96 327.1L543.67 327.08L543.38 327.05L543.09 327.01L542.81 326.96L542.53 326.9L542.26 326.82L541.99 326.74L541.73 326.65L541.47 326.54L541.22 326.43L540.97 326.31L540.73 326.18L540.49 326.04L540.26 325.89L540.04 325.73L539.82 325.56L539.61 325.39L539.41 325.21L539.22 325.02L539.03 324.82L538.85 324.62L538.67 324.4L538.51 324.19L538.35 323.96L538.21 323.73L538.07 323.5L537.94 323.26L537.82 323.01L537.7 322.76L537.6 322.5L537.51 322.24L537.43 321.97L537.36 321.7L537.29 321.43L537.24 321.15L537.2 320.87L537.18 320.58L537.16 320.29L537.15 320L537.16 319.7L537.18 319.41L537.2 319.12L537.25 318.84L537.3 318.56L537.36 318.28L537.43 318.01L537.52 317.74L537.61 317.47L537.71 317.22L537.83 316.96L537.95 316.72L538.08 316.47L538.22 316.24L538.37 316.01L538.53 315.79L538.69 315.57L538.87 315.36L539.05 315.16L539.24 314.96L539.44 314.77L539.64 314.59L539.85 314.42L540.07 314.25L540.29 314.1L540.52 313.95L540.76 313.81L541 313.68L541.25 313.56L541.5 313.45L541.76 313.35L542.02 313.25L542.28 313.17L542.56 313.1L542.83 313.04L543.11 312.99L543.39 312.95L543.68 312.92L543.96 312.9L544.26 312.9L576.45 312.9L576.37 310.49L576.27 308.08L576.15 305.68L576 303.29L575.84 300.89L575.65 298.51L575.44 296.12L575.21 293.74L574.96 291.36L574.69 288.99L574.39 286.63L574.07 284.26L573.73 281.9L573.37 279.55L572.99 277.2L572.59 274.86L572.16 272.52L571.71 270.18L571.24 267.85L570.75 265.53L570.24 263.21L569.71 260.89L569.15 258.59L568.57 256.28L567.97 253.98L567.35 251.69L566.71 249.4L566.05 247.12L565.36 244.85L564.66 242.58L563.93 240.32L563.18 238.06L562.41 235.81L561.62 233.56L560.8 231.32L559.97 229.09L559.11 226.86L558.24 224.64L557.34 222.43L556.42 220.22L555.51 218.1L554.58 215.99L553.64 213.89L552.68 211.8L551.7 209.72L550.7 207.65L549.69 205.59L548.66 203.54L547.6 201.5L546.54 199.47L545.45 197.46L544.34 195.45L543.22 193.45L542.08 191.47L540.92 189.49L539.75 187.53L538.56 185.58L537.35 183.63L536.12 181.7L534.87 179.78L533.61 177.88L532.33 175.98L531.03 174.09L529.72 172.22L528.39 170.35L527.04 168.5L525.67 166.66L524.29 164.83L522.89 163.02L521.47 161.21L520.03 159.42L518.58 157.64L517.12 155.86L515.63 154.11L514.13 152.36L512.61 150.63L511.07 148.9L509.52 147.19L507.95 145.49L506.37 143.81L483.65 166.53L483.54 166.63L483.43 166.73L483.32 166.83L483.21 166.93L483.1 167.02L482.99 167.11L482.88 167.2L482.76 167.29L482.64 167.37L482.53 167.45L482.41 167.53L482.29 167.61L482.16 167.68L482.04 167.75L481.92 167.82L481.79 167.88L481.67 167.94L481.54 168L481.42 168.06L481.29 168.11L481.16 168.16L481.03 168.21L480.9 168.26L480.77 168.3L480.64 168.34L480.5 168.38L480.37 168.42L480.24 168.45L480.1 168.48L479.97 168.51L479.83 168.53L479.7 168.56L479.56 168.58L479.42 168.59L479.28 168.61L479.15 168.62L479.01 168.63L478.87 168.63L478.73 168.64L478.59 168.64L478.45 168.64L478.31 168.63L478.18 168.63L478.04 168.62L477.9 168.61L477.76 168.59L477.63 168.58L477.49 168.56L477.35 168.53L477.22 168.51L477.08 168.48L476.95 168.45L476.81 168.42L476.68 168.38L476.55 168.34L476.42 168.3L476.28 168.26L476.15 168.21L476.02 168.16L475.9 168.11L475.77 168.06L475.64 168L475.51 167.94L475.39 167.88L475.27 167.82L475.14 167.75L475.02 167.68L474.9 167.61L474.78 167.53L474.66 167.45L474.54 167.37L474.42 167.29L474.31 167.2L474.19 167.11L474.08 167.02L473.97 166.93L473.86 166.83L473.75 166.73L473.64 166.63L473.54 166.53L473.33 166.31L473.13 166.09L472.95 165.87L472.78 165.64L472.61 165.4L472.46 165.16L472.32 164.91L472.18 164.67L472.06 164.41L471.95 164.16L471.85 163.9L471.76 163.63L471.68 163.37L471.61 163.1L471.56 162.83L471.51 162.56L471.47 162.29L471.45 162.02L471.43 161.75L471.42 161.47L471.43 161.2L471.45 160.93L471.47 160.65L471.51 160.38L471.56 160.11L471.61 159.84L471.68 159.57L471.76 159.31L471.85 159.05L471.95 158.79L472.06 158.53L472.18 158.28L472.32 158.03L472.46 157.78L472.61 157.54L472.78 157.31L472.95 157.08L473.13 156.85L473.33 156.63L473.54 156.42L496.26 133.7L494.57 132.11L492.87 130.54L491.16 128.99L489.44 127.46L487.7 125.94L485.96 124.44L484.2 122.95L482.43 121.49L480.65 120.04L478.85 118.6L477.05 117.19L475.23 115.79L473.4 114.41L471.56 113.04L469.71 111.7L467.85 110.37L465.97 109.05L464.09 107.76L462.19 106.48L460.28 105.22L458.36 103.97L456.43 102.74L454.49 101.54L452.54 100.34L450.57 99.17L448.6 98.01L446.61 96.87L444.62 95.75L442.61 94.64L440.59 93.56L438.56 92.49L436.52 91.43L434.47 90.4L432.42 89.38L430.34 88.38L428.26 87.4L426.17 86.44L424.07 85.49L421.96 84.56L419.84 83.65L417.63 82.73L415.41 81.83L413.19 80.95L410.96 80.09L408.72 79.26L406.48 78.45L404.23 77.65L401.98 76.88L399.72 76.13L397.46 75.41L395.19 74.7L392.91 74.01L390.63 73.35L388.34 72.71L386.05 72.09L383.75 71.49L381.45 70.91L379.14 70.36L376.83 69.82L374.51 69.31L372.19 68.82L369.86 68.35L367.53 67.9L365.19 67.48L362.85 67.07L360.5 66.69L358.15 66.33L355.79 65.99L353.43 65.67L351.06 65.38L348.69 65.1L346.32 64.85L343.94 64.62L341.55 64.41L339.17 64.22L336.78 64.06L334.38 63.92L331.98 63.79L329.58 63.69L327.17 63.62L327.17 95.74L327.17 95.85L327.16 95.96L327.16 96.07L327.15 96.18L327.15 96.29L327.14 96.4L327.13 96.51L327.12 96.62L327.1 96.72L327.09 96.83L327.07 96.94L327.05 97.04L327.03 97.15L327.01 97.26L326.99 97.36L326.96 97.46L326.94 97.57L326.91 97.67L326.88 97.77L326.85 97.87L326.82 97.97L326.78 98.07L326.75 98.17L326.71 98.27L326.67 98.37L326.64 98.46L326.6 98.56L326.55 98.65L326.51 98.75L326.47 98.84L326.42 98.93L326.37 99.02L326.33 99.11L326.28 99.2L326.22 99.29L326.17 99.38L326.12 99.46L326.06 99.55L326.01 99.63L325.95 99.71L325.85 99.85L325.75 99.99L325.65 100.13L325.54 100.27L325.43 100.4L325.32 100.53L325.2 100.65L325.08 100.78L324.96 100.9L324.83 101.01L324.71 101.13L324.58 101.24L324.44 101.34L324.31 101.45L324.17 101.55L324.03 101.65L323.88 101.74L323.74 101.83L323.59 101.92L323.44 102L323.29 102.08L323.13 102.16L322.98 102.23L322.82 102.3L322.66 102.36L322.5 102.42L322.33 102.48L322.17 102.53L322 102.58L321.83 102.63L321.66 102.67L321.49 102.71L321.31 102.74L321.14 102.77L320.96 102.79L320.79 102.81L320.61 102.83L320.43 102.84L320.25 102.85L320.06 102.85L319.77 102.84L319.48 102.82L319.19 102.8L318.9 102.75L318.62 102.7L318.34 102.64L318.07 102.57L317.8 102.48L317.54 102.39L317.28 102.29L317.03 102.17L316.78 102.05L316.54 101.92L316.3 101.78L316.07 101.63L315.85 101.47L315.63 101.31L315.42 101.13L315.22 100.95L315.02 100.76L314.84 100.56L314.66 100.36L314.48 100.15L314.32 99.93L314.16 99.71L314.01 99.48L313.87 99.24L313.74 99L313.62 98.75L313.51 98.5L313.41 98.24L313.32 97.98L313.24 97.72L313.16 97.44L313.1 97.17L313.05 96.89L313.01 96.61L312.98 96.32L312.97 96.04L312.96 95.74L312.96 63.55L310.55 63.63L308.15 63.73Z" id="a212l6dSY"></path></defs><g><g><path></path><path></path><path></path><g><use xlink:href="#a5Sux483lJ" opacity="1" fill="#b9bdce" fill-opacity="1"></use><g><use xlink:href="#a5Sux483lJ" opacity="1" fill-opacity="0" stroke="#000000" stroke-width="1" stroke-opacity="0"></use></g></g><g><use xlink:href="#a212l6dSY" opacity="1" fill="#b9bdce" fill-opacity="1"></use><g><use xlink:href="#a212l6dSY" opacity="1" fill-opacity="0" stroke="#000000" stroke-width="1" stroke-opacity="0"></use></g></g></g></g></svg>