<?xml version="1.0" encoding="UTF-8" standalone="no"?>
<!DOCTYPE svg PUBLIC "-//W3C//DTD SVG 1.1//EN" "http://www.w3.org/Graphics/SVG/1.1/DTD/svg11.dtd">
<svg version="1.1" xmlns="http://www.w3.org/2000/svg" xmlns:xlink="http://www.w3.org/1999/xlink" preserveAspectRatio="xMidYMid meet" viewBox="0 0 640 640" width="640" height="640"><defs><path d="M388.67 6.52L390.32 6.67L391.96 6.88L393.62 7.14L395.27 7.46L396.93 7.83L398.58 8.26L400.23 8.73L401.87 9.26L403.51 9.84L405.14 10.47L406.75 11.14L408.36 11.86L409.95 12.62L411.52 13.43L413.08 14.28L414.61 15.17L416.13 16.1L417.62 17.06L419.08 18.07L420.52 19.11L421.93 20.19L423.31 21.3L424.66 22.45L425.97 23.62L427.24 24.83L428.48 26.07L429.68 27.33L430.84 28.62L431.95 29.94L433.02 31.28L434.05 32.64L435.02 34.03L435.94 35.44L436.82 36.87L437.63 38.31L438.4 39.78L439.1 41.26L439.74 42.75L468.35 110.98L594.5 110.98L595.04 110.99L595.59 111.02L596.12 111.07L596.65 111.14L597.17 111.24L597.68 111.35L598.19 111.48L598.68 111.63L599.17 111.8L599.64 111.98L600.11 112.18L600.56 112.41L601.01 112.64L601.44 112.9L601.86 113.17L602.27 113.45L602.67 113.75L603.05 114.07L603.43 114.4L603.78 114.74L604.13 115.1L604.46 115.47L604.77 115.86L605.08 116.26L605.36 116.67L605.63 117.09L605.89 117.52L606.12 117.97L606.34 118.42L606.55 118.89L606.73 119.36L606.9 119.85L607.05 120.34L607.18 120.85L607.29 121.36L607.39 121.88L607.46 122.41L607.51 122.94L607.54 123.48L607.55 124.03L607.49 150.14L607.2 150.79L606.91 151.42L606.62 152.03L606.33 152.62L606.04 153.2L605.74 153.77L605.44 154.31L605.14 154.84L604.84 155.36L604.54 155.86L604.23 156.34L603.92 156.8L603.61 157.25L603.3 157.68L602.98 158.1L602.66 158.5L602.35 158.88L602.02 159.25L601.7 159.6L601.38 159.94L601.05 160.25L600.72 160.56L600.39 160.84L600.05 161.11L599.72 161.36L599.38 161.6L599.04 161.82L598.7 162.02L598.35 162.21L598.01 162.38L597.66 162.54L597.31 162.68L596.96 162.8L596.6 162.91L596.25 163L595.89 163.07L595.53 163.13L595.16 163.17L594.8 163.19L594.43 163.2L555.26 163.2L555.26 550.27L555.21 553.63L555.05 556.96L554.78 560.26L554.41 563.52L553.93 566.75L553.36 569.94L552.69 573.09L551.92 576.19L551.06 579.24L550.11 582.25L549.07 585.19L547.95 588.08L546.74 590.91L545.45 593.68L544.07 596.38L542.62 599.01L541.09 601.57L539.49 604.05L537.82 606.46L536.08 608.78L534.27 611.02L532.4 613.18L530.46 615.24L528.46 617.21L526.4 619.08L524.29 620.85L522.12 622.53L519.9 624.09L517.62 625.55L515.3 626.9L512.94 628.13L510.53 629.25L508.08 630.24L505.58 631.12L503.05 631.86L500.49 632.48L497.89 632.97L495.26 633.32L492.6 633.53L489.92 633.6L150.14 633.6L147.46 633.53L144.81 633.33L142.18 632.99L139.59 632.53L137.03 631.93L134.5 631.22L132.01 630.38L129.56 629.42L127.15 628.35L124.79 627.16L122.47 625.86L120.2 624.45L117.97 622.94L115.81 621.32L113.69 619.61L111.63 617.79L109.63 615.88L107.69 613.88L105.82 611.79L104.01 609.62L102.26 607.35L100.59 605.01L98.99 602.59L97.46 600.09L96.01 597.52L94.63 594.88L93.34 592.17L92.13 589.39L91 586.55L89.96 583.65L89.01 580.69L88.15 577.68L87.38 574.62L86.71 571.5L86.14 568.34L85.66 565.14L85.29 561.89L85.02 558.61L84.85 555.29L84.8 551.94L84.8 163.2L45.63 163.2L45.08 163.19L44.54 163.16L44.01 163.11L43.48 163.03L42.96 162.94L42.45 162.83L41.94 162.7L41.45 162.55L40.96 162.38L40.49 162.2L40.02 161.99L39.57 161.77L39.12 161.53L38.69 161.28L38.27 161.01L37.86 160.72L37.46 160.42L37.07 160.11L36.7 159.78L36.34 159.43L36 159.07L35.67 158.7L35.35 158.32L35.05 157.92L34.77 157.51L34.5 157.09L34.24 156.65L34.01 156.21L33.78 155.75L33.58 155.29L33.4 154.81L33.23 154.33L33.08 153.83L32.95 153.33L32.84 152.82L32.74 152.3L32.67 151.77L32.62 151.24L32.59 150.69L32.58 150.14L32.58 124.03L32.59 123.48L32.62 122.94L32.67 122.41L32.74 121.88L32.84 121.36L32.95 120.85L33.08 120.34L33.23 119.85L33.4 119.36L33.58 118.89L33.78 118.42L34.01 117.97L34.24 117.52L34.5 117.09L34.77 116.67L35.05 116.26L35.35 115.86L35.67 115.47L36 115.1L36.34 114.74L36.7 114.4L37.07 114.07L37.46 113.75L37.86 113.45L38.27 113.17L38.69 112.9L39.12 112.64L39.57 112.41L40.02 112.18L40.49 111.98L40.96 111.8L41.45 111.63L41.94 111.48L42.45 111.35L42.96 111.24L43.48 111.14L44.01 111.07L44.54 111.02L45.08 110.99L45.63 110.98L171.78 110.98L200.38 42.75L201.03 41.26L201.73 39.78L202.49 38.31L203.31 36.87L204.18 35.44L205.1 34.03L206.08 32.64L207.1 31.28L208.17 29.94L209.28 28.62L210.44 27.33L211.63 26.07L212.87 24.83L214.14 23.62L215.46 22.45L216.8 21.3L218.18 20.19L219.59 19.11L221.02 18.07L222.49 17.06L223.98 16.1L225.49 15.17L227.03 14.28L228.58 13.43L230.15 12.62L231.74 11.86L233.35 11.14L234.96 10.47L236.59 9.84L238.23 9.26L239.87 8.73L241.52 8.26L243.18 7.83L244.84 7.46L246.49 7.14L248.15 6.88L249.8 6.67L251.45 6.52L253.09 6.43L254.72 6.4L385.41 6.4L387.04 6.43L388.67 6.52ZM410.97 215.5L410.43 215.53L409.89 215.58L409.37 215.65L408.85 215.75L408.33 215.86L407.83 215.99L407.34 216.14L406.85 216.31L406.38 216.49L405.91 216.7L405.45 216.92L405.01 217.15L404.58 217.41L404.15 217.68L403.74 217.96L403.35 218.27L402.96 218.58L402.59 218.91L402.23 219.26L401.89 219.61L401.56 219.99L401.24 220.37L400.94 220.77L400.65 221.18L400.38 221.6L400.13 222.03L399.89 222.48L399.67 222.93L399.47 223.4L399.28 223.87L399.12 224.36L398.97 224.85L398.83 225.36L398.72 225.87L398.63 226.39L398.56 226.92L398.51 227.45L398.47 228L398.46 228.54L398.46 516.03L398.47 516.58L398.51 517.12L398.56 517.66L398.63 518.19L398.72 518.71L398.83 519.22L398.97 519.72L399.12 520.22L399.28 520.7L399.47 521.18L399.67 521.64L399.89 522.1L400.13 522.54L400.38 522.98L400.65 523.4L400.94 523.81L401.24 524.2L401.56 524.59L401.89 524.96L402.23 525.32L402.59 525.66L402.96 526L403.35 526.31L403.74 526.61L404.15 526.9L404.58 527.17L405.01 527.42L405.45 527.66L405.91 527.88L406.38 528.08L406.85 528.27L407.34 528.44L407.83 528.59L408.33 528.72L408.85 528.83L409.37 528.92L409.89 528.99L410.43 529.05L410.97 529.08L411.52 529.09L437.63 529.09L438.18 529.08L438.72 529.05L439.26 528.99L439.79 528.92L440.31 528.83L440.82 528.72L441.32 528.59L441.82 528.44L442.3 528.27L442.78 528.08L443.24 527.88L443.7 527.66L444.14 527.42L444.58 527.17L445 526.9L445.41 526.61L445.8 526.31L446.19 526L446.56 525.66L446.92 525.32L447.26 524.96L447.6 524.59L447.91 524.2L448.21 523.81L448.5 523.4L448.77 522.98L449.02 522.54L449.26 522.1L449.48 521.64L449.68 521.18L449.87 520.7L450.04 520.22L450.19 519.72L450.32 519.22L450.43 518.71L450.52 518.19L450.59 517.66L450.65 517.12L450.68 516.58L450.69 516.03L450.69 228.54L450.4 227.9L450.11 227.27L449.82 226.66L449.53 226.06L449.24 225.48L448.94 224.92L448.64 224.37L448.34 223.84L448.04 223.33L447.74 222.83L447.43 222.35L447.12 221.89L446.81 221.44L446.5 221L446.18 220.59L445.86 220.19L445.55 219.8L445.22 219.44L444.9 219.09L444.58 218.75L444.25 218.43L443.92 218.13L443.59 217.85L443.25 217.58L442.92 217.32L442.58 217.09L442.24 216.87L441.9 216.66L441.55 216.48L441.21 216.3L440.86 216.15L440.51 216.01L440.16 215.89L439.8 215.78L439.45 215.69L439.09 215.62L438.73 215.56L438.36 215.52L438 215.5L437.63 215.49L411.52 215.49L410.97 215.5ZM201.88 215.5L201.34 215.53L200.81 215.58L200.28 215.65L199.76 215.75L199.25 215.86L198.74 215.99L198.25 216.14L197.76 216.31L197.29 216.49L196.82 216.7L196.37 216.92L195.92 217.15L195.49 217.41L195.07 217.68L194.66 217.96L194.26 218.27L193.87 218.58L193.5 218.91L193.14 219.26L192.8 219.61L192.47 219.99L192.15 220.37L191.85 220.77L191.57 221.18L191.3 221.6L191.04 222.03L190.81 222.48L190.58 222.93L190.38 223.4L190.2 223.87L190.03 224.36L189.88 224.85L189.75 225.36L189.64 225.87L189.54 226.39L189.47 226.92L189.42 227.45L189.39 228L189.38 228.54L189.38 516.03L189.39 516.58L189.42 517.12L189.47 517.66L189.54 518.19L189.64 518.71L189.75 519.22L189.88 519.72L190.03 520.22L190.2 520.7L190.38 521.18L190.58 521.64L190.81 522.1L191.04 522.54L191.3 522.98L191.57 523.4L191.85 523.81L192.15 524.2L192.47 524.59L192.8 524.96L193.14 525.32L193.5 525.66L193.87 526L194.26 526.31L194.66 526.61L195.07 526.9L195.49 527.17L195.92 527.42L196.37 527.66L196.82 527.88L197.29 528.08L197.76 528.27L198.25 528.44L198.74 528.59L199.25 528.72L199.76 528.83L200.28 528.92L200.81 528.99L201.34 529.05L201.88 529.08L202.43 529.09L228.54 529.09L229.09 529.08L229.64 529.05L230.17 528.99L230.7 528.92L231.22 528.83L231.73 528.72L232.23 528.59L232.73 528.44L233.21 528.27L233.69 528.08L234.15 527.88L234.61 527.66L235.05 527.42L235.49 527.17L235.91 526.9L236.32 526.61L236.72 526.31L237.1 526L237.47 525.66L237.83 525.32L238.18 524.96L238.51 524.59L238.82 524.2L239.12 523.81L239.41 523.4L239.68 522.98L239.93 522.54L240.17 522.1L240.39 521.64L240.6 521.18L240.78 520.7L240.95 520.22L241.1 519.72L241.23 519.22L241.34 518.71L241.43 518.19L241.51 517.66L241.56 517.12L241.59 516.58L241.6 516.03L241.6 228.54L241.31 227.9L241.03 227.27L240.74 226.66L240.44 226.06L240.15 225.48L239.85 224.92L239.56 224.37L239.26 223.84L238.95 223.33L238.65 222.83L238.34 222.35L238.03 221.89L237.72 221.44L237.41 221L237.09 220.59L236.78 220.19L236.46 219.8L236.14 219.44L235.81 219.09L235.49 218.75L235.16 218.43L234.83 218.13L234.5 217.85L234.17 217.58L233.83 217.32L233.49 217.09L233.15 216.87L232.81 216.66L232.47 216.48L232.12 216.3L231.77 216.15L231.42 216.01L231.07 215.89L230.71 215.78L230.36 215.69L230 215.62L229.64 215.56L229.28 215.52L228.91 215.5L228.54 215.49L202.43 215.49L201.88 215.5ZM306.4 215.5L305.85 215.53L305.32 215.58L304.79 215.65L304.27 215.75L303.76 215.86L303.25 215.99L302.76 216.14L302.27 216.31L301.8 216.49L301.33 216.7L300.88 216.92L300.43 217.15L300 217.41L299.58 217.68L299.17 217.96L298.77 218.27L298.39 218.58L298.01 218.91L297.66 219.26L297.31 219.61L296.98 219.99L296.67 220.37L296.36 220.77L296.08 221.18L295.81 221.6L295.55 222.03L295.32 222.48L295.1 222.93L294.89 223.4L294.71 223.87L294.54 224.36L294.39 224.85L294.26 225.36L294.15 225.87L294.05 226.39L293.98 226.92L293.93 227.45L293.9 228L293.89 228.54L293.89 516.03L293.9 516.58L293.93 517.12L293.98 517.66L294.05 518.19L294.15 518.71L294.26 519.22L294.39 519.72L294.54 520.22L294.71 520.7L294.89 521.18L295.1 521.64L295.32 522.1L295.55 522.54L295.81 522.98L296.08 523.4L296.36 523.81L296.67 524.2L296.98 524.59L297.31 524.96L297.66 525.32L298.01 525.66L298.39 526L298.77 526.31L299.17 526.61L299.58 526.9L300 527.17L300.43 527.42L300.88 527.66L301.33 527.88L301.8 528.08L302.27 528.27L302.76 528.44L303.25 528.59L303.76 528.72L304.27 528.83L304.79 528.92L305.32 528.99L305.85 529.05L306.4 529.08L306.94 529.09L333.06 529.09L333.6 529.08L334.15 529.05L334.68 528.99L335.21 528.92L335.73 528.83L336.24 528.72L336.75 528.59L337.24 528.44L337.73 528.27L338.2 528.08L338.67 527.88L339.12 527.66L339.57 527.42L340 527.17L340.42 526.9L340.83 526.61L341.23 526.31L341.61 526L341.99 525.66L342.34 525.32L342.69 524.96L343.02 524.59L343.33 524.2L343.64 523.81L343.92 523.4L344.19 522.98L344.45 522.54L344.68 522.1L344.9 521.64L345.11 521.18L345.29 520.7L345.46 520.22L345.61 519.72L345.74 519.22L345.85 518.71L345.95 518.19L346.02 517.66L346.07 517.12L346.1 516.58L346.11 516.03L346.11 228.54L345.83 227.9L345.54 227.27L345.25 226.66L344.96 226.06L344.66 225.48L344.37 224.92L344.07 224.37L343.77 223.84L343.46 223.33L343.16 222.83L342.85 222.35L342.54 221.89L342.23 221.44L341.92 221L341.61 220.59L341.29 220.19L340.97 219.8L340.65 219.44L340.33 219.09L340 218.75L339.67 218.43L339.34 218.13L339.01 217.85L338.68 217.58L338.34 217.32L338 217.09L337.66 216.87L337.32 216.66L336.98 216.48L336.63 216.3L336.28 216.15L335.93 216.01L335.58 215.89L335.23 215.78L334.87 215.69L334.51 215.62L334.15 215.56L333.79 215.52L333.42 215.5L333.06 215.49L306.94 215.49L306.4 215.5ZM255.3 58.72L255.12 58.76L254.93 58.81L254.74 58.86L254.54 58.93L254.35 58.99L254.15 59.07L253.95 59.15L253.75 59.23L253.55 59.33L253.35 59.42L253.15 59.52L252.95 59.63L252.75 59.74L252.55 59.85L252.35 59.97L252.16 60.09L251.96 60.22L251.77 60.34L251.58 60.47L251.39 60.6L251.2 60.74L251.02 60.87L250.83 61.01L250.66 61.15L250.48 61.29L250.31 61.43L250.15 61.57L249.98 61.71L249.83 61.85L249.68 61.99L249.53 62.12L249.39 62.26L249.25 62.4L249.12 62.53L249 62.66L248.88 62.79L248.77 62.92L248.67 63.05L248.58 63.17L228.54 110.91L411.46 110.91L391.87 63.17L391.78 63.04L391.67 62.91L391.56 62.78L391.44 62.65L391.31 62.51L391.17 62.38L391.03 62.24L390.88 62.1L390.72 61.96L390.56 61.82L390.39 61.68L390.22 61.54L390.04 61.4L389.86 61.26L389.67 61.12L389.49 60.98L389.29 60.85L389.1 60.71L388.9 60.58L388.7 60.45L388.5 60.32L388.3 60.19L388.1 60.07L387.9 59.95L387.7 59.84L387.5 59.72L387.3 59.61L387.1 59.51L386.9 59.41L386.71 59.32L386.51 59.23L386.32 59.14L386.14 59.06L385.96 58.99L385.78 58.92L385.6 58.86L385.43 58.81L385.27 58.76L385.11 58.72L384.96 58.69L255.49 58.69L255.3 58.72Z" id="g4Czi7ENE"></path></defs><g><g><g><use xlink:href="#g4Czi7ENE" opacity="1" fill="#ffffff" fill-opacity="1"></use><g><use xlink:href="#g4Czi7ENE" opacity="1" fill-opacity="0" stroke="#ffffff" stroke-width="1" stroke-opacity="1"></use></g></g></g></g></svg>