<?xml version="1.0" encoding="UTF-8" standalone="no"?>
<!DOCTYPE svg PUBLIC "-//W3C//DTD SVG 1.1//EN" "http://www.w3.org/Graphics/SVG/1.1/DTD/svg11.dtd">
<svg version="1.1" xmlns="http://www.w3.org/2000/svg" xmlns:xlink="http://www.w3.org/1999/xlink" preserveAspectRatio="xMidYMid meet" viewBox="0 0 640 640" width="640" height="640"><defs><path d="M260.85 578.49C261.12 576.72 260.18 575.26 258.05 574.13C255.92 573.01 254.85 572.11 254.85 571.48C254.85 570.83 253.32 570.34 250.26 570.02C247.19 569.7 245.67 569.54 245.67 569.54C245.32 569.54 243.59 569.54 240.47 569.54L236.08 569.54C167.06 569.54 128.71 569.54 121.04 569.54C103.46 569.54 88.42 561.95 75.9 546.76C63.38 531.57 57.13 513.32 57.13 492C57.13 457.89 57.13 184.97 57.13 150.85C57.13 129.53 63.38 111.28 75.9 96.1C88.42 80.91 103.46 73.32 121.04 73.32C133.82 73.32 236.08 73.32 248.86 73.32C252.32 73.32 255.05 72.28 257.05 70.17C259.04 68.07 260.37 64.92 261.04 60.72C261.71 56.52 262.11 52.73 262.24 49.34C262.37 45.95 262.31 41.66 262.04 36.5C261.78 31.33 261.64 28.1 261.64 26.8C261.64 22.6 260.38 18.97 257.85 15.9C255.32 12.84 252.32 11.3 248.86 11.3C236.08 11.3 133.82 11.3 121.04 11.3C89.35 11.3 62.25 24.95 39.75 52.25C17.25 79.55 6 112.41 6 150.86C6 184.97 6 457.89 6 492C6 530.44 17.25 563.32 39.75 590.61C62.25 617.92 89.35 631.57 121.04 631.57C133.82 631.57 236.08 631.57 248.87 631.57C252.33 631.57 255.05 630.51 257.06 628.42C259.05 626.32 260.38 623.17 261.05 618.97C261.71 614.77 262.11 610.96 262.25 607.58C262.38 604.19 262.32 599.91 262.05 594.74C261.78 589.57 261.65 586.34 261.65 585.05C260.85 582.46 260.57 580.27 260.85 578.49Z" id="ahi9NMJ7v"></path><path d="M407.45 36.01C402.39 29.87 396.4 26.8 389.48 26.8C382.55 26.8 376.56 29.87 371.5 36.01C366.44 42.14 363.91 49.42 363.91 57.82C363.91 67.12 363.91 113.64 363.91 197.38C256.54 197.38 196.88 197.38 184.95 197.38C178.03 197.38 172.04 200.45 166.98 206.58C161.92 212.72 159.39 219.99 159.39 228.39C159.39 247 159.39 395.87 159.39 414.48C159.39 422.88 161.92 430.15 166.98 436.28C172.04 442.41 178.03 445.49 184.95 445.49C196.88 445.49 256.54 445.49 363.91 445.49C363.91 529.23 363.91 575.75 363.91 585.05C363.91 593.45 366.44 600.72 371.5 606.86C376.56 613 382.55 616.07 389.48 616.07C396.4 616.07 402.39 613 407.45 606.86C429.18 580.5 603.02 369.61 624.75 343.25C629.81 337.1 632.34 329.84 632.34 321.44C632.34 313.04 629.81 305.77 624.75 299.63C581.29 246.9 429.18 62.37 407.45 36.01Z" id="a3XwMjiCs6"></path></defs><g><g><g><use xlink:href="#ahi9NMJ7v" opacity="1" fill="#ffffff" fill-opacity="1"></use><g><use xlink:href="#ahi9NMJ7v" opacity="1" fill-opacity="0" stroke="#ffffff" stroke-width="1" stroke-opacity="1"></use></g></g><g><use xlink:href="#a3XwMjiCs6" opacity="1" fill="#ffffff" fill-opacity="1"></use><g><use xlink:href="#a3XwMjiCs6" opacity="1" fill-opacity="0" stroke="#ffffff" stroke-width="1" stroke-opacity="1"></use></g></g></g></g></svg>