<?xml version="1.0" encoding="UTF-8" standalone="no"?>
<!DOCTYPE svg PUBLIC "-//W3C//DTD SVG 1.1//EN" "http://www.w3.org/Graphics/SVG/1.1/DTD/svg11.dtd">
<svg version="1.1" xmlns="http://www.w3.org/2000/svg" xmlns:xlink="http://www.w3.org/1999/xlink" preserveAspectRatio="xMidYMid meet" viewBox="0 0 640 640" width="640" height="640"><defs><path d="M0.16 319.84C0.16 307.24 10.18 297.22 22.78 297.22C41.06 297.22 132.48 297.22 297.04 297.22C297.04 132.65 297.04 41.22 297.04 22.94C297.06 10.34 307.4 0 320 0C332.6 0 342.61 10.34 342.61 22.94C342.61 41.22 342.61 132.65 342.61 297.22C507.17 297.22 598.59 297.22 616.88 297.22C629.48 297.22 639.82 307.24 639.82 319.84C639.82 332.44 629.48 342.78 616.88 342.78C598.59 342.78 507.17 342.78 342.61 342.78C342.61 507.35 342.61 598.78 342.61 617.06C342.61 629.66 332.6 640 320 640C307.4 640 297.06 629.66 297.06 617.06C297.06 598.78 297.06 507.35 297.06 342.78L22.78 342.78C7.7 335.88 0.16 328.24 0.16 319.84Z" id="a7lEe0mmS1"></path></defs><g><g><g><use xlink:href="#a7lEe0mmS1" opacity="1" fill="#ffffff" fill-opacity="1"></use><g><use xlink:href="#a7lEe0mmS1" opacity="1" fill-opacity="0" stroke="#000000" stroke-width="1" stroke-opacity="0"></use></g></g></g></g></svg>